<svg width="5462" height="2880" viewBox="0 0 5462 2880" fill="none" xmlns="http://www.w3.org/2000/svg">
<path d="M3273.87 1068.27C3311.47 1144 3365.47 1252.4 3393.87 1309.2C3422.27 1365.87 3445.33 1413.07 3445.07 1414C3444.8 1415.2 3058 1830.53 2976.13 1917.6L2967.73 1926.67H3109.73H3251.73L3402.13 1761.33C3484.8 1670.4 3552.93 1596.4 3553.33 1596.93C3553.87 1597.47 3587.47 1672 3628 1762.27L3701.87 1926.67H3842.27H3982.67L3978.13 1917.6C3975.6 1912.53 3920.67 1800.27 3856 1668.13C3755.73 1462.8 3738.8 1427.33 3740.27 1425.6C3741.2 1424.4 3792.93 1369.47 3855.2 1303.6C3917.33 1237.6 3970.13 1181.73 3972.27 1179.2L3976.27 1174.67H3835.87L3695.33 1174.8L3664 1208.67C3646.8 1227.33 3632.4 1242.67 3632 1242.67C3631.6 1242.67 3598.4 1172.67 3558.4 1086.93L3485.47 931.334L3345.47 930.934L3205.47 930.667L3273.87 1068.27Z" fill="black" stroke="#979797" stroke-width="18"/>
<path d="M3550 934.934C3551.2 937.334 3571.47 980.667 3595.07 1031.33L3638.13 1123.33L3973.2 1123.73L4308.27 1124L4307.33 1127.73C4306.93 1129.73 4265.2 1310.13 4214.8 1528.67L4123.2 1926L4251.87 1926.4C4322.53 1926.53 4380.67 1926.4 4381.07 1926.13C4381.33 1925.73 4422.93 1746.13 4473.47 1527.07C4524 1308 4565.73 1127.6 4566.13 1126.4C4566.8 1124.13 4576.53 1124 4740.67 1123.73L4914.4 1123.33L4869.47 1027.33L4824.53 931.334L4186.27 930.934L3548 930.667L3550 934.934Z" fill="black" stroke="#979797" stroke-width="18"/>
<path d="M931.333 1031.87C899.066 1084.67 846.533 1171.2 814.666 1224.27C782.8 1277.33 753.866 1325.33 750.533 1330.8C747.2 1336.13 736.666 1353.2 727.333 1368.67C718 1384 707.2 1401.73 703.333 1408C699.466 1414.27 688.666 1431.87 679.333 1447.33C670 1462.67 659.2 1480.4 655.333 1486.67C651.466 1492.93 639.733 1512.13 629.333 1529.33C618.8 1546.53 608 1564.27 605.333 1568.67C602.533 1573.07 580.933 1608.4 557.2 1647.33C533.6 1686.13 507.6 1728.8 499.6 1742C491.466 1755.2 480.4 1773.33 475.066 1782.4L465.2 1798.67L495.466 1863.33L525.733 1928H592H658.266L661.733 1921.6C663.6 1918.13 690 1872.67 720.4 1820.67L775.6 1726L961.066 1725.6L1146.53 1725.33L1147.2 1729.6C1147.6 1732 1148.93 1742.4 1150 1752.67C1151.2 1762.93 1154.27 1789.33 1156.8 1811.33C1159.33 1833.33 1162.93 1865.07 1164.8 1882C1166.8 1898.8 1168.67 1916 1169.2 1920L1170 1927.33L1301.07 1927.73C1391.73 1927.87 1432 1927.6 1432 1926.67C1432 1925.07 1428.93 1903.33 1418.67 1830.67C1415.07 1805.33 1406.4 1743.87 1399.33 1694C1392.27 1644.13 1383.6 1582.67 1380 1557.33C1376.4 1532 1368.93 1478.93 1363.33 1439.33C1357.73 1399.73 1348.67 1335.87 1343.2 1297.33C1337.87 1258.8 1331.73 1215.47 1329.73 1200.93L1326 1174.67L1237.47 1174.93L1149.07 1175.33L1122.4 1221.33L1095.87 1267.33L1096.53 1276C1096.93 1280.8 1099.07 1300 1101.2 1318.67C1103.47 1337.33 1107.07 1368.53 1109.33 1388C1117.47 1457.73 1121.47 1491.73 1124 1515.33C1125.47 1528.53 1126.93 1540.93 1127.33 1542.93L1128 1546.67H1004C935.733 1546.67 880 1546.4 880 1546.13C880 1545.87 912.933 1489.33 953.066 1420.53C993.2 1351.6 1027.33 1292.93 1028.93 1290C1030.4 1287.07 1046.8 1258.27 1065.33 1226C1083.87 1193.73 1103.73 1158.8 1109.73 1148.27L1120.53 1129.33H1411.73H1702.8L1691.47 1141.6C1612.4 1227.73 1562.4 1331.6 1543.47 1449.33C1530.8 1527.6 1531.07 1608.27 1543.87 1667.07C1569.2 1782.67 1646.13 1866.93 1768.4 1912.8C1810.93 1928.67 1864.4 1940 1923.33 1945.6C1951.73 1948.27 2042 1947.87 2073.33 1944.93C2122.4 1940.27 2168.8 1932.93 2211.33 1923.07C2250.13 1914.13 2301.2 1900.8 2329.33 1892.4C2354.8 1884.8 2379.73 1877.07 2386.8 1874.53L2394.4 1871.73L2398 1856.93C2400 1848.67 2403.6 1833.6 2406 1823.33C2440.53 1678.93 2454.13 1622.93 2456.8 1613.47C2458.53 1607.2 2468.4 1566.53 2478.67 1523.33C2489.07 1480 2499.2 1437.33 2501.47 1428.27C2503.6 1419.33 2507.07 1404.67 2509.2 1395.6C2511.33 1386.67 2514.93 1371.73 2517.2 1362.4C2519.47 1353.07 2521.33 1345.07 2521.33 1344.67C2521.33 1344.27 2416.67 1344 2288.8 1344H2056.27L2054.13 1352.27C2052.93 1356.93 2047.47 1379.87 2042 1403.33C2036.4 1426.8 2030.4 1452.27 2028.53 1460C2026.8 1467.73 2022.4 1486.27 2018.8 1501.33C2015.2 1516.27 2012.53 1529.07 2012.8 1529.6C2013.2 1530.13 2058.13 1530.67 2112.8 1530.67C2191.2 1530.67 2212 1531.07 2212 1532.27C2212 1533.2 2208.93 1546 2205.2 1560.67C2201.47 1575.33 2196.67 1594.27 2194.67 1602.67C2179.2 1668 2155.6 1764.8 2155.07 1765.33C2152.67 1767.87 2068.4 1768.8 2039.87 1766.67C1904.27 1756.27 1835.33 1707.47 1814.13 1607.07C1809.6 1585.2 1808 1567.87 1808 1538.13C1808 1474 1819.33 1416.13 1843.47 1356.4C1886.4 1250.13 1965.07 1173.73 2071.33 1134.93L2084.67 1130L2378.93 1129.33L2673.07 1128.67L2628.13 1032.67L2583.2 936.667L1786.53 936.267L990 936.001L931.333 1031.87Z" fill="black" stroke="#979797" stroke-width="18"/>
<path d="M2771.87 944.267C2783.07 969.067 2857.6 1127.47 2858.53 1128.4C2859.07 1128.93 2917.47 1129.2 2988.27 1129.07L3117.07 1128.67L3072.13 1032.67L3027.2 936.667L2897.6 936.267L2768.13 936L2771.87 944.267Z" fill="black" stroke="#979797" stroke-width="18"/>
<path d="M2846.8 1245.6C2845.47 1248.8 2836.93 1268.13 2828 1288.67C2812.53 1324.13 2792.4 1370.4 2730 1513.33C2714.93 1547.73 2690.4 1604.13 2675.33 1638.67C2660.27 1673.07 2635.6 1729.73 2620.53 1764.27C2569.73 1880.93 2551.73 1922 2550.4 1924.4C2549.33 1926.53 2555.6 1926.67 2678.8 1926.4L2808.27 1926L2824.27 1889.33C2864 1798.4 2895.07 1727.07 2896.67 1723.33C2897.73 1721.07 2910 1692.93 2924.13 1660.67C2938.13 1628.4 2962 1573.73 2976.93 1539.33C2992 1504.8 3005.33 1474.27 3006.67 1471.33C3020.13 1440.4 3067.87 1331.2 3085.47 1290.93L3107.73 1240H2978.53H2849.2L2846.8 1245.6Z" fill="black" stroke="#979797" stroke-width="18"/>
<path d="M570 2033.27C581.867 2058.87 602.267 2102.2 615.067 2129.67L638.533 2179.67H2540H4441.47L4464.93 2129.67C4477.73 2102.2 4498.13 2058.87 4510 2033.27L4531.73 1987H2540H548.267L570 2033.27Z" fill="black" stroke="#979797" stroke-width="18"/>
</svg>
