<svg width="677" height="354" viewBox="0 0 677 354" fill="none" xmlns="http://www.w3.org/2000/svg">
<path d="M405.836 131.308C410.497 140.617 417.191 153.941 420.712 160.923C424.232 167.888 427.092 173.689 427.059 173.804C427.026 173.952 379.077 225.003 368.929 235.705L367.887 236.819H385.49H403.093L421.737 216.497C431.984 205.32 440.43 196.224 440.48 196.29C440.546 196.355 444.711 205.517 449.736 216.612L458.892 236.819H476.297H493.701L493.139 235.705C492.825 235.082 486.015 221.283 477.999 205.041C465.57 179.803 463.471 175.443 463.652 175.23C463.768 175.083 470.181 168.33 477.9 160.234C485.602 152.122 492.147 145.255 492.412 144.943L492.908 144.386H475.503L458.082 144.403L454.198 148.565C452.066 150.86 450.281 152.744 450.231 152.744C450.182 152.744 446.066 144.14 441.108 133.602L432.067 114.476L414.712 114.427L397.357 114.394L405.836 131.308Z" fill="url(#paint0_linear_5_629)"/>
<path d="M440.067 114.919C440.215 115.214 442.728 120.54 445.653 126.768L450.992 138.076L492.527 138.126L534.063 138.158L533.947 138.617C533.898 138.863 528.724 161.037 522.477 187.899L511.122 236.737L527.072 236.787C535.832 236.803 543.038 236.787 543.088 236.754C543.121 236.705 548.277 214.629 554.542 187.702C560.806 160.775 565.979 138.601 566.029 138.453C566.112 138.175 567.318 138.158 587.664 138.126L609.201 138.076L603.631 126.276L598.061 114.476L518.94 114.427L439.819 114.394L440.067 114.919Z" fill="url(#paint1_linear_5_629)"/>
<path d="M115.45 126.834C111.45 133.324 104.938 143.96 100.988 150.483C97.0378 157.006 93.4511 162.906 93.0379 163.578C92.6247 164.233 91.319 166.331 90.162 168.232C89.005 170.117 87.6662 172.296 87.1869 173.067C86.7076 173.837 85.3688 176 84.2118 177.901C83.0548 179.786 81.716 181.966 81.2367 182.736C80.7574 183.506 79.3029 185.866 78.0137 187.981C76.7079 190.095 75.3691 192.275 75.0386 192.815C74.6915 193.356 72.0139 197.699 69.0718 202.485C66.1463 207.254 62.9233 212.498 61.9316 214.121C60.9234 215.743 59.5515 217.972 58.8904 219.087L57.6673 221.086L61.4192 229.035L65.1712 236.983H73.3857H81.6003L82.03 236.197C82.2614 235.771 85.534 230.182 89.3025 223.79L96.1452 212.154L119.136 212.105L142.127 212.072L142.21 212.597C142.259 212.892 142.425 214.17 142.557 215.432C142.706 216.694 143.086 219.939 143.4 222.643C143.714 225.347 144.16 229.248 144.391 231.329C144.639 233.394 144.871 235.508 144.937 236L145.036 236.901L161.283 236.951C172.523 236.967 177.514 236.934 177.514 236.82C177.514 236.623 177.134 233.951 175.861 225.02C175.415 221.906 174.341 214.35 173.465 208.221C172.589 202.091 171.514 194.536 171.068 191.422C170.622 188.308 169.696 181.786 169.002 176.918C168.308 172.051 167.184 164.2 166.506 159.464C165.845 154.728 165.085 149.401 164.837 147.615L164.374 144.386L153.399 144.419L142.441 144.468L139.135 150.122L135.846 155.776L135.929 156.842C135.978 157.432 136.243 159.792 136.507 162.086C136.788 164.381 137.235 168.216 137.516 170.608C138.524 179.18 139.02 183.359 139.334 186.26C139.516 187.882 139.697 189.406 139.747 189.652L139.83 190.111H124.458C115.996 190.111 109.087 190.078 109.087 190.046C109.087 190.013 113.169 183.064 118.144 174.607C123.119 166.134 127.351 158.923 127.549 158.563C127.731 158.202 129.764 154.662 132.061 150.696C134.359 146.73 136.821 142.436 137.565 141.141L138.904 138.814H175.002H211.083L209.678 140.322C199.877 150.909 193.679 163.676 191.332 178.147C189.762 187.768 189.795 197.683 191.381 204.91C194.522 219.12 204.059 229.477 219.215 235.115C224.488 237.065 231.116 238.458 238.421 239.147C241.942 239.475 253.131 239.425 257.015 239.065C263.098 238.491 268.85 237.59 274.122 236.377C278.932 235.279 285.262 233.64 288.75 232.608C291.907 231.673 294.997 230.723 295.873 230.411L296.816 230.067L297.262 228.248C297.51 227.232 297.956 225.38 298.254 224.118C302.534 206.369 304.22 199.486 304.551 198.322C304.766 197.552 305.989 192.553 307.261 187.243C308.551 181.917 309.807 176.672 310.088 175.558C310.352 174.46 310.782 172.657 311.046 171.543C311.311 170.444 311.757 168.609 312.038 167.462C312.319 166.314 312.551 165.331 312.551 165.282C312.551 165.233 299.576 165.2 283.725 165.2H254.9L254.635 166.216C254.487 166.79 253.809 169.609 253.131 172.493C252.437 175.378 251.693 178.508 251.462 179.458C251.247 180.409 250.702 182.687 250.255 184.539C249.809 186.375 249.478 187.948 249.512 188.013C249.561 188.079 255.131 188.145 261.908 188.145C271.626 188.145 274.205 188.194 274.205 188.341C274.205 188.456 273.825 190.029 273.362 191.832C272.899 193.635 272.304 195.962 272.056 196.995C270.139 205.025 267.213 216.923 267.147 216.989C266.85 217.3 256.404 217.415 252.867 217.153C236.057 215.875 227.512 209.876 224.884 197.535C224.322 194.848 224.124 192.717 224.124 189.062C224.124 181.179 225.529 174.066 228.521 166.724C233.843 153.662 243.594 144.271 256.767 139.502L258.42 138.896L294.898 138.814L331.36 138.732L325.79 126.932L320.22 115.132L221.463 115.083L122.723 115.05L115.45 126.834Z" fill="url(#paint2_linear_5_629)"/>
<path d="M343.607 116.066C344.996 119.114 354.235 138.584 354.351 138.699C354.417 138.765 361.656 138.797 370.433 138.781L386.399 138.732L380.829 126.932L375.259 115.132L359.193 115.083L343.144 115.05L343.607 116.066Z" fill="url(#paint3_linear_5_629)"/>
<path d="M352.896 153.105C352.731 153.498 351.673 155.875 350.566 158.399C348.648 162.758 346.153 168.445 338.417 186.014C336.55 190.242 333.508 197.175 331.641 201.419C329.773 205.648 326.715 212.613 324.848 216.858C318.55 231.198 316.319 236.246 316.154 236.541C316.021 236.803 316.798 236.819 332.07 236.787L348.119 236.737L350.103 232.231C355.028 221.053 358.879 212.285 359.078 211.826C359.21 211.548 360.731 208.09 362.483 204.124C364.218 200.157 367.177 193.438 369.028 189.21C370.895 184.965 372.548 181.212 372.714 180.851C374.383 177.049 380.3 163.627 382.482 158.677L385.242 152.417H369.226H353.194L352.896 153.105Z" fill="url(#paint4_linear_5_629)"/>
<path d="M70.6586 249.922C72.1296 253.069 74.6584 258.395 76.2452 261.772L79.1541 267.917H314.865H550.575L553.484 261.772C555.071 258.395 557.599 253.069 559.07 249.922L561.765 244.235H314.865H67.9645L70.6586 249.922Z" fill="url(#paint5_linear_5_629)"/>
<defs>
<linearGradient id="paint0_linear_5_629" x1="430.794" y1="236.819" x2="371.189" y2="236.819" gradientUnits="userSpaceOnUse">
<stop stop-color="#FDD700"/>
<stop offset="1" stop-color="#FD7900" stop-opacity="0.4"/>
</linearGradient>
<linearGradient id="paint1_linear_5_629" x1="524.51" y1="236.793" x2="444.263" y2="236.793" gradientUnits="userSpaceOnUse">
<stop stop-color="#FDD700"/>
<stop offset="1" stop-color="#FD7900" stop-opacity="0.4"/>
</linearGradient>
<linearGradient id="paint2_linear_5_629" x1="194.514" y1="239.366" x2="64.8489" y2="239.366" gradientUnits="userSpaceOnUse">
<stop stop-color="#FDD700"/>
<stop offset="1" stop-color="#FD7900" stop-opacity="0.4"/>
</linearGradient>
<linearGradient id="paint3_linear_5_629" x1="364.772" y1="138.785" x2="344.279" y2="138.785" gradientUnits="userSpaceOnUse">
<stop stop-color="#FDD700"/>
<stop offset="1" stop-color="#FD7900" stop-opacity="0.4"/>
</linearGradient>
<linearGradient id="paint4_linear_5_629" x1="350.692" y1="236.799" x2="317.955" y2="236.799" gradientUnits="userSpaceOnUse">
<stop stop-color="#FDD700"/>
<stop offset="1" stop-color="#FD7900" stop-opacity="0.4"/>
</linearGradient>
<linearGradient id="paint5_linear_5_629" x1="314.865" y1="267.917" x2="80.9216" y2="267.917" gradientUnits="userSpaceOnUse">
<stop stop-color="#FDD700"/>
<stop offset="1" stop-color="#FD7900" stop-opacity="0.4"/>
</linearGradient>
</defs>
</svg>
