<svg width="804" height="648" viewBox="0 0 804 648" fill="none" xmlns="http://www.w3.org/2000/svg">
<g filter="url(#filter0_f_21_654)">
<circle cx="480" cy="324" r="129" fill="#FFC100" fill-opacity="0.24"/>
</g>
<g filter="url(#filter1_f_21_654)">
<circle cx="378" cy="324" r="129" fill="#FF9900" fill-opacity="0.12"/>
</g>
<path d="M405.836 278.308C410.497 287.617 417.191 300.941 420.712 307.923C424.232 314.888 427.092 320.689 427.059 320.804C427.026 320.952 379.077 372.003 368.929 382.705L367.887 383.819H385.49H403.093L421.737 363.497C431.984 352.32 440.43 343.224 440.48 343.29C440.546 343.355 444.711 352.517 449.736 363.612L458.892 383.819H476.297H493.701L493.139 382.705C492.825 382.082 486.015 368.283 477.999 352.041C465.57 326.803 463.471 322.443 463.652 322.23C463.768 322.083 470.181 315.33 477.9 307.234C485.602 299.122 492.147 292.255 492.412 291.943L492.908 291.386H475.503L458.082 291.403L454.198 295.565C452.066 297.86 450.281 299.744 450.231 299.744C450.182 299.744 446.066 291.14 441.108 280.602L432.067 261.476L414.712 261.427L397.357 261.394L405.836 278.308Z" fill="url(#paint0_linear_21_654)"/>
<path d="M440.067 261.919C440.215 262.214 442.728 267.54 445.653 273.768L450.992 285.076L492.527 285.126L534.063 285.158L533.947 285.617C533.898 285.863 528.724 308.037 522.477 334.899L511.122 383.737L527.072 383.787C535.832 383.803 543.038 383.787 543.088 383.754C543.121 383.705 548.277 361.629 554.542 334.702C560.806 307.775 565.979 285.601 566.029 285.453C566.112 285.175 567.318 285.158 587.664 285.126L609.201 285.076L603.631 273.276L598.061 261.476L518.94 261.427L439.819 261.394L440.067 261.919Z" fill="url(#paint1_linear_21_654)"/>
<path d="M115.45 273.834C111.45 280.324 104.938 290.96 100.988 297.483C97.0378 304.006 93.4511 309.906 93.0379 310.578C92.6247 311.233 91.319 313.331 90.162 315.232C89.005 317.117 87.6662 319.296 87.1869 320.067C86.7076 320.837 85.3688 323 84.2118 324.901C83.0548 326.786 81.716 328.966 81.2367 329.736C80.7574 330.506 79.3029 332.866 78.0137 334.981C76.7079 337.095 75.3691 339.275 75.0386 339.815C74.6915 340.356 72.0139 344.699 69.0718 349.485C66.1463 354.254 62.9233 359.498 61.9316 361.121C60.9234 362.743 59.5515 364.972 58.8904 366.087L57.6673 368.086L61.4192 376.035L65.1712 383.983H73.3857H81.6003L82.03 383.197C82.2614 382.771 85.534 377.182 89.3025 370.79L96.1452 359.154L119.136 359.105L142.127 359.072L142.21 359.597C142.259 359.892 142.425 361.17 142.557 362.432C142.706 363.694 143.086 366.939 143.4 369.643C143.714 372.347 144.16 376.248 144.391 378.329C144.639 380.394 144.871 382.508 144.937 383L145.036 383.901L161.283 383.951C172.523 383.967 177.514 383.934 177.514 383.82C177.514 383.623 177.134 380.951 175.861 372.02C175.415 368.906 174.341 361.35 173.465 355.221C172.589 349.091 171.514 341.536 171.068 338.422C170.622 335.308 169.696 328.786 169.002 323.918C168.308 319.051 167.184 311.2 166.506 306.464C165.845 301.728 165.085 296.401 164.837 294.615L164.374 291.386L153.399 291.419L142.441 291.468L139.135 297.122L135.846 302.776L135.929 303.842C135.978 304.432 136.243 306.792 136.507 309.086C136.788 311.381 137.235 315.216 137.516 317.608C138.524 326.18 139.02 330.359 139.334 333.26C139.516 334.882 139.697 336.406 139.747 336.652L139.83 337.111H124.458C115.996 337.111 109.087 337.078 109.087 337.046C109.087 337.013 113.169 330.064 118.144 321.607C123.119 313.134 127.351 305.923 127.549 305.563C127.731 305.202 129.764 301.662 132.061 297.696C134.359 293.73 136.821 289.436 137.565 288.141L138.904 285.814H175.002H211.083L209.678 287.322C199.877 297.909 193.679 310.676 191.332 325.147C189.762 334.768 189.795 344.683 191.381 351.91C194.522 366.12 204.059 376.477 219.215 382.115C224.488 384.065 231.116 385.458 238.421 386.147C241.942 386.475 253.131 386.425 257.015 386.065C263.098 385.491 268.85 384.59 274.122 383.377C278.932 382.279 285.262 380.64 288.75 379.608C291.907 378.673 294.997 377.723 295.873 377.411L296.816 377.067L297.262 375.248C297.51 374.232 297.956 372.38 298.254 371.118C302.534 353.369 304.22 346.486 304.551 345.322C304.766 344.552 305.989 339.553 307.261 334.243C308.551 328.917 309.807 323.672 310.088 322.558C310.352 321.46 310.782 319.657 311.046 318.543C311.311 317.444 311.757 315.609 312.038 314.462C312.319 313.314 312.551 312.331 312.551 312.282C312.551 312.233 299.576 312.2 283.725 312.2H254.9L254.635 313.216C254.487 313.79 253.809 316.609 253.131 319.493C252.437 322.378 251.693 325.508 251.462 326.458C251.247 327.409 250.702 329.687 250.255 331.539C249.809 333.375 249.478 334.948 249.512 335.013C249.561 335.079 255.131 335.145 261.908 335.145C271.626 335.145 274.205 335.194 274.205 335.341C274.205 335.456 273.825 337.029 273.362 338.832C272.899 340.635 272.304 342.962 272.056 343.995C270.139 352.025 267.213 363.923 267.147 363.989C266.85 364.3 256.404 364.415 252.867 364.153C236.057 362.875 227.512 356.876 224.884 344.535C224.322 341.848 224.124 339.717 224.124 336.062C224.124 328.179 225.529 321.066 228.521 313.724C233.843 300.662 243.594 291.271 256.767 286.502L258.42 285.896L294.898 285.814L331.36 285.732L325.79 273.932L320.22 262.132L221.463 262.083L122.723 262.05L115.45 273.834Z" fill="url(#paint2_linear_21_654)"/>
<path d="M343.607 263.066C344.996 266.114 354.235 285.584 354.351 285.699C354.417 285.765 361.656 285.797 370.433 285.781L386.399 285.732L380.829 273.932L375.259 262.132L359.193 262.083L343.144 262.05L343.607 263.066Z" fill="url(#paint3_linear_21_654)"/>
<path d="M352.896 300.105C352.731 300.498 351.673 302.875 350.566 305.399C348.648 309.758 346.153 315.445 338.417 333.014C336.55 337.242 333.508 344.175 331.641 348.419C329.773 352.648 326.715 359.613 324.848 363.858C318.55 378.198 316.319 383.246 316.154 383.541C316.021 383.803 316.798 383.819 332.07 383.787L348.119 383.737L350.103 379.231C355.028 368.053 358.879 359.285 359.078 358.826C359.21 358.548 360.731 355.09 362.483 351.124C364.218 347.157 367.177 340.438 369.028 336.21C370.895 331.965 372.548 328.212 372.714 327.851C374.383 324.049 380.3 310.627 382.482 305.677L385.242 299.417H369.226H353.194L352.896 300.105Z" fill="url(#paint4_linear_21_654)"/>
<path d="M70.6586 396.922C72.1296 400.069 74.6584 405.395 76.2452 408.772L79.1541 414.917H314.865H550.575L553.484 408.772C555.071 405.395 557.599 400.069 559.07 396.922L561.765 391.235H314.865H67.9645L70.6586 396.922Z" fill="url(#paint5_linear_21_654)"/>
<defs>
<filter id="filter0_f_21_654" x="156" y="0" width="648" height="648" filterUnits="userSpaceOnUse" color-interpolation-filters="sRGB">
<feFlood flood-opacity="0" result="BackgroundImageFix"/>
<feBlend mode="normal" in="SourceGraphic" in2="BackgroundImageFix" result="shape"/>
<feGaussianBlur stdDeviation="97.5" result="effect1_foregroundBlur_21_654"/>
</filter>
<filter id="filter1_f_21_654" x="54" y="0" width="648" height="648" filterUnits="userSpaceOnUse" color-interpolation-filters="sRGB">
<feFlood flood-opacity="0" result="BackgroundImageFix"/>
<feBlend mode="normal" in="SourceGraphic" in2="BackgroundImageFix" result="shape"/>
<feGaussianBlur stdDeviation="97.5" result="effect1_foregroundBlur_21_654"/>
</filter>
<linearGradient id="paint0_linear_21_654" x1="430.794" y1="383.819" x2="371.189" y2="383.819" gradientUnits="userSpaceOnUse">
<stop stop-color="#FDD700"/>
<stop offset="1" stop-color="#FD7900" stop-opacity="0.4"/>
</linearGradient>
<linearGradient id="paint1_linear_21_654" x1="524.51" y1="383.793" x2="444.263" y2="383.793" gradientUnits="userSpaceOnUse">
<stop stop-color="#FDD700"/>
<stop offset="1" stop-color="#FD7900" stop-opacity="0.4"/>
</linearGradient>
<linearGradient id="paint2_linear_21_654" x1="194.514" y1="386.366" x2="64.8489" y2="386.366" gradientUnits="userSpaceOnUse">
<stop stop-color="#FDD700"/>
<stop offset="1" stop-color="#FD7900" stop-opacity="0.4"/>
</linearGradient>
<linearGradient id="paint3_linear_21_654" x1="364.772" y1="285.785" x2="344.279" y2="285.785" gradientUnits="userSpaceOnUse">
<stop stop-color="#FDD700"/>
<stop offset="1" stop-color="#FD7900" stop-opacity="0.4"/>
</linearGradient>
<linearGradient id="paint4_linear_21_654" x1="350.692" y1="383.799" x2="317.955" y2="383.799" gradientUnits="userSpaceOnUse">
<stop stop-color="#FDD700"/>
<stop offset="1" stop-color="#FD7900" stop-opacity="0.4"/>
</linearGradient>
<linearGradient id="paint5_linear_21_654" x1="314.865" y1="414.917" x2="80.9216" y2="414.917" gradientUnits="userSpaceOnUse">
<stop stop-color="#FDD700"/>
<stop offset="1" stop-color="#FD7900" stop-opacity="0.4"/>
</linearGradient>
</defs>
</svg>
