<?xml version="1.0" encoding="UTF-8" standalone="no"?>
<svg
   version="1.0"
   width="4096pt"
   height="2160pt"
   viewBox="0 0 4096 2160"
   preserveAspectRatio="xMidYMid"
   id="svg16"
   xmlns="http://www.w3.org/2000/svg"
   xmlns:svg="http://www.w3.org/2000/svg">
  <defs
     id="defs20" />
  <g
     transform="matrix(0.1,0,0,-0.1,0,2160)"
     fill="#000000"
     stroke="none"
     id="g14"
     style="stroke:#ffffff;stroke-width:20;stroke-dasharray:none">
    <path
       d="m 24554,13588 c 282,-568 687,-1381 900,-1807 213,-425 386,-779 384,-786 -2,-9 -2903,-3124 -3517,-3777 l -63,-68 h 1065 1065 l 1128,1240 c 620,682 1131,1237 1134,1233 4,-4 256,-563 560,-1240 l 554,-1233 h 1053 1053 l -34,68 c -19,38 -431,880 -916,1871 -752,1540 -879,1806 -868,1819 7,9 395,421 862,915 466,495 862,914 878,933 l 30,34 h -1053 l -1054,-1 -235,-254 c -129,-140 -237,-255 -240,-255 -3,0 -252,525 -552,1168 l -547,1167 -1050,3 -1050,2 z"
       id="path2"
       style="stroke:#ffffff;stroke-width:20;stroke-dasharray:none" />
    <path
       d="m 26625,14588 c 9,-18 161,-343 338,-723 l 323,-690 2513,-3 2513,-2 -7,-28 c -3,-15 -316,-1368 -694,-3007 l -687,-2980 965,-3 c 530,-1 966,0 969,2 2,3 314,1350 693,2993 379,1643 692,2996 695,3005 5,17 78,18 1309,20 l 1303,3 -337,720 -337,720 -4787,3 -4787,2 z"
       id="path4"
       style="stroke:#ffffff;stroke-width:20;stroke-dasharray:none" />
    <path
       d="m 6985,13861 c -242,-396 -636,-1045 -875,-1443 -239,-398 -456,-758 -481,-799 -25,-40 -104,-168 -174,-284 -70,-115 -151,-248 -180,-295 -29,-47 -110,-179 -180,-295 -70,-115 -151,-248 -180,-295 -29,-47 -117,-191 -195,-320 -79,-129 -160,-262 -180,-295 -21,-33 -183,-298 -361,-590 -177,-291 -372,-611 -432,-710 -61,-99 -144,-235 -184,-303 l -74,-122 227,-485 227,-485 h 497 497 l 26,48 c 14,26 212,367 440,757 l 414,710 1391,3 1391,2 5,-32 c 3,-18 13,-96 21,-173 9,-77 32,-275 51,-440 19,-165 46,-403 60,-530 15,-126 29,-255 33,-285 l 6,-55 983,-3 c 680,-1 982,1 982,8 0,12 -23,175 -100,720 -27,190 -92,651 -145,1025 -53,374 -118,835 -145,1025 -27,190 -83,588 -125,885 -42,297 -110,776 -151,1065 -40,289 -86,614 -101,723 l -28,197 -664,-2 -663,-3 -200,-345 -199,-345 5,-65 c 3,-36 19,-180 35,-320 17,-140 44,-374 61,-520 61,-523 91,-778 110,-955 11,-99 22,-192 25,-207 l 5,-28 h -930 c -512,0 -930,2 -930,4 0,2 247,426 548,942 301,517 557,957 569,979 11,22 134,238 273,480 139,242 288,504 333,583 l 81,142 h 2184 2183 l -85,-92 c -593,-646 -968,-1425 -1110,-2308 -95,-587 -93,-1192 3,-1633 190,-867 767,-1499 1684,-1843 319,-119 720,-204 1162,-246 213,-20 890,-17 1125,5 368,35 716,90 1035,164 291,67 674,167 885,230 191,57 378,115 431,134 l 57,21 27,111 c 15,62 42,175 60,252 259,1083 361,1503 381,1574 13,47 87,352 164,676 78,325 154,645 171,713 16,67 42,177 58,245 16,67 43,179 60,249 17,70 31,130 31,133 0,3 -785,5 -1744,5 h -1744 l -16,-62 c -9,-35 -50,-207 -91,-383 -42,-176 -87,-367 -101,-425 -13,-58 -46,-197 -73,-310 -27,-112 -47,-208 -45,-212 3,-4 340,-8 750,-8 588,0 744,-3 744,-12 0,-7 -23,-103 -51,-213 -28,-110 -64,-252 -79,-315 -116,-490 -293,-1216 -297,-1220 -18,-19 -650,-26 -864,-10 -1017,78 -1534,444 -1693,1197 -34,164 -46,294 -46,517 0,481 85,915 266,1363 322,797 912,1370 1709,1661 l 100,37 2207,5 2206,5 -337,720 -337,720 -5975,3 -5974,2 z"
       id="path6"
       style="stroke:#ffffff;stroke-width:20;stroke-dasharray:none" />
    <path
       d="m 20789,14518 c 84,-186 643,-1374 650,-1381 4,-4 442,-6 973,-5 l 966,3 -337,720 -337,720 -972,3 -971,2 z"
       id="path8"
       style="stroke:#ffffff;stroke-width:20;stroke-dasharray:none" />
    <path
       d="m 21351,12258 c -10,-24 -74,-169 -141,-323 -116,-266 -267,-613 -735,-1685 -113,-258 -297,-681 -410,-940 -113,-258 -298,-683 -411,-942 -381,-875 -516,-1183 -526,-1201 -8,-16 39,-17 963,-15 l 971,3 120,275 c 298,682 531,1217 543,1245 8,17 100,228 206,470 105,242 284,652 396,910 113,259 213,488 223,510 101,232 459,1051 591,1353 l 167,382 h -969 -970 z"
       id="path10"
       style="stroke:#ffffff;stroke-width:20;stroke-dasharray:none" />
    <path
       d="m 4275,6433 c 89,-192 242,-517 338,-723 l 176,-375 h 14261 14261 l 176,375 c 96,206 249,531 338,723 l 163,347 H 19050 4112 Z"
       id="path12"
       style="stroke:#ffffff;stroke-width:20;stroke-dasharray:none" />
  </g>
</svg>
